<?xml version="1.0" encoding="UTF-8"?>
<svg id="Layer_1" xmlns="http://www.w3.org/2000/svg" version="1.1" viewBox="0 0 195.01 518.97">
  <!-- Generator: Adobe Illustrator 29.5.1, SVG Export Plug-In . SVG Version: 2.1.0 Build 141)  -->
  <defs>
    <style>
      .st0 {
        fill: #fff;
      }
    </style>
  </defs>
  <path class="st0" d="M65.9,394.2c.3,36.64,1.4,75.05,3.32,124.77,1.83-47.41,2.91-84.53,3.27-119.64,4.22,3.14,8.62,6.07,13.19,8.78.55,34.5,1.37,70.83,2.45,110.86,1.06-38.96,1.85-74.39,2.4-108.07,4.79,2.62,9.73,4.98,14.84,7.14,1.09.46,2.18.93,3.3,1.32,4.93,1.95,9.98,3.7,15.2,5.19,1.36.4,2.71.76,4.1,1.12,4.63,1.19,9.42,2.25,14.28,3.07,1.72.3,3.44.6,5.15.83,14.91,2.18,30.77,2.61,47.6,1.19-16.89.2-32.75-1.32-47.53-4.36.77-18.48,1.04-38.02.65-58.53-.43-22-1.59-42.87-3.26-62.49-1.68,19.42-2.85,40.09-3.29,61.89-.41,20.33-.14,39.69.61,57.98-4.86-1.12-9.55-2.41-14.15-3.87,2.18-133.17,1.46-82.74-2.11-215.44-3.54,132.24-4.26,81.35-2.12,214.06-5.19-1.78-10.21-3.77-15.07-5.98,1.98-144.71,2.11-105.81.46-250.65v-.11l6.22-73.6c1.88-8.56,8.58-15.26,17.2-17.14l38.53-8.39-38.53-8.42c-8.61-1.85-15.31-8.56-17.2-17.17L107.03,0l-8.4,38.53c-1.85,8.61-8.58,15.31-17.17,17.17l-38.53,8.42,38.53,8.39c8.58,1.88,15.31,8.58,17.17,17.14l6.21,73.43s0,.01,0,.02v.36c-1.62,144.28-1.49,104.78.43,248.93-5.07-2.42-9.95-5.08-14.63-7.99,1.66-106.19.81-74.75-2.51-198.45-3.29,122.43-4.15,90.48-2.56,195.23-4.53-2.97-8.85-6.19-13-9.59.11-10.32.03-20.93-.25-31.81-.49-18.98-1.58-37.14-3.1-54.4-1.46,16.13-2.52,33.08-3.04,50.79-.3,10.13-.4,20.01-.34,29.62C24.74,348.1,4,289.64,6.15,221.88c1.19-26.71,5.85-53.65,13.75-79.26,2.18-7.73,6.18-17.78,8.79-25.58C13.22,149.62,3.07,185.15.56,221.58c-4.59,71.09,19.1,134.56,65.34,172.62ZM105.26,69.52c-.41-1.83-1.8-3.24-3.62-3.62l-8.15-1.77,8.15-1.8c1.83-.38,3.21-1.8,3.62-3.62l1.77-8.12,1.77,8.12c.41,1.83,1.8,3.24,3.62,3.62l8.15,1.8-8.15,1.77c-1.83.38-3.21,1.8-3.62,3.62l-1.31,6.02-.46,2.1-.46-2.1-1.31-6.02Z"/>
  <path class="st0" d="M147.05,447.4c-1.49-.23-2.94-.46-4.4-.73-5.02-.86-10.02-1.92-14.97-3.17-1.16-.3-2.31-.6-3.47-.89-5.32-1.42-10.61-3.07-15.8-4.92-.96-.36-1.88-.69-2.81-1.06-.6-.2-1.19-.43-1.78-.66-4.16-1.49-8.26-3.24-12.4-4.96,4.59,2.78,9.32,5.32,14.21,7.57.4,26.84.86,53.61,1.39,80.38.53-26.34.96-52.75,1.35-79.16,5.19,2.28,10.48,4.23,15.9,5.88.46,24.46,1.03,48.89,1.69,73.28.66-24.06,1.19-48.16,1.65-72.29,4.99,1.39,10.02,2.51,15.11,3.4.56,22.97,1.25,45.94,2.15,68.88.89-22.74,1.59-45.48,2.12-68.22,15.93,2.25,32.26,1.95,48.02-1.06-16.03.89-32.13.16-47.96-2.28Z"/>
  <path class="st0" d="M45.05,91.6c-.15-2.14-.66-3.88-1.12-5.11-1.17.33-2.72.9-4.38,1.9-1.7,1.02-2.94,2.14-3.79,3.03,3.02,1.53,6.03,3.06,9.05,4.6.21-1.15.36-2.66.24-4.42Z"/>
  <path class="st0" d="M38.68,108.36c4.18-4.13,5.41-8.88,5.79-10.8l-9.9-5.03c-1.36,1.5-4.9,5.81-5.45,12.29-.32,3.74.48,6.77,1.12,8.6,1.85-.59,5.27-1.94,8.43-5.06ZM31.77,105.05c.35-4.02,2.03-7.15,3.51-9.18l6.1,3.1c-.68,2.14-2.01,4.99-4.56,7.51-1.58,1.57-3.27,2.65-4.79,3.39-.3-1.59-.39-3.2-.25-4.82Z"/>
  <path class="st0" d="M27.93,110.65c-.12-.38-.31-1.04-.41-1.87-.27-2.29.28-4.63.28-4.63,0,0-2.49,1.75-4.07,3.78-.61.79-1.4,2.02-1.96,3.85.74-.37,1.83-.81,3.2-1.04,1.17-.19,2.19-.17,2.95-.1Z"/>
  <path class="st0" d="M35.61,112.89c-.73.41-1.37.65-1.75.78.51.57,1.12,1.37,1.66,2.43.63,1.24.91,2.38,1.05,3.2,1.15-1.53,1.68-2.9,1.96-3.85.71-2.47.65-5.52.65-5.52,0,0-1.56,1.82-3.57,2.96Z"/>
</svg>